# Blender 4.1.1
# www.blender.org
mtllib axis.mtl
o Cube_Material.002_0
v -0.100000 0.100000 0.100000
v -0.100000 -0.100000 0.100000
v -0.100000 -0.099999 2.100000
v -0.100000 0.100001 2.100000
v -0.100000 -0.099999 2.100000
v 0.100000 -0.099999 2.100000
v 0.200000 -0.199999 2.100000
v -0.200000 -0.199999 2.100000
v -0.100000 -0.100000 0.100000
v 0.100000 -0.100000 0.100000
v 0.100000 -0.099999 2.100000
v -0.100000 -0.099999 2.100000
v 0.100000 0.100000 0.100000
v -0.100000 0.100000 0.100000
v -0.100000 0.100001 2.100000
v 0.100000 0.100001 2.100000
v 0.100000 -0.100000 0.100000
v 0.100000 0.100000 0.100000
v 0.100000 0.100001 2.100000
v 0.100000 -0.099999 2.100000
v -0.200000 0.200001 2.100000
v -0.200000 -0.199999 2.100000
v 0.000000 0.000001 2.500001
v 0.100000 0.100001 2.100000
v -0.100000 0.100001 2.100000
v -0.200000 0.200001 2.100000
v 0.200000 0.200001 2.100000
v -0.100000 0.100001 2.100000
v -0.100000 -0.099999 2.100000
v -0.200000 -0.199999 2.100000
v -0.200000 0.200001 2.100000
v -0.200000 -0.199999 2.100000
v 0.200000 -0.199999 2.100000
v 0.000000 0.000001 2.500001
v 0.200000 0.200001 2.100000
v -0.200000 0.200001 2.100000
v 0.000000 0.000001 2.500001
v 0.200000 -0.199999 2.100000
v 0.200000 0.200001 2.100000
v 0.000000 0.000001 2.500001
vn -1.0000 -0.0000 -0.0000
vn -0.0000 -0.0000 -1.0000
vn -0.0000 -1.0000 -0.0000
vn -0.0000 1.0000 -0.0000
vn 1.0000 -0.0000 -0.0000
vn -0.8944 -0.0000 0.4472
vn -0.0000 -0.8944 0.4472
vn -0.0000 0.8944 0.4472
vn 0.8944 -0.0000 0.4472
vt 0.625000 0.750000
vt 0.625000 1.000000
vt 0.625000 0.000000
vt 0.625000 0.250000
vt 0.625000 0.500000
vt 0.875000 0.500000
s 0
usemtl Material.013
f 1/1/1 2/2/1 3/2/1
f 1/1/1 3/2/1 4/1/1
f 5/3/2 6/4/2 7/4/2
f 5/3/2 7/4/2 8/3/2
f 9/3/3 10/4/3 11/4/3
f 9/3/3 11/4/3 12/3/3
f 13/5/4 14/6/4 15/6/4
f 13/5/4 15/6/4 16/5/4
f 17/4/5 18/5/5 19/5/5
f 17/4/5 19/5/5 20/4/5
f 21/1/6 22/2/6 23/2/6
f 24/5/2 25/6/2 26/6/2
f 24/5/2 26/6/2 27/5/2
f 6/4/2 24/5/2 27/5/2
f 6/4/2 27/5/2 7/4/2
f 28/1/2 29/2/2 30/2/2
f 28/1/2 30/2/2 31/1/2
f 32/3/7 33/4/7 34/4/7
f 35/5/8 36/6/8 37/6/8
f 38/4/9 39/5/9 40/5/9
o Cube_Material.003_0
v -0.100000 0.100000 0.100000
v 0.100000 0.100000 0.100000
v 0.100000 2.100000 0.099999
v -0.100000 2.100000 0.099999
v -0.100000 2.100000 0.099999
v 0.100000 2.100000 0.099999
v 0.200000 2.100000 0.199999
v -0.200000 2.100000 0.199999
v -0.100000 0.100000 -0.100000
v -0.100000 0.100000 0.100000
v -0.100000 2.100000 0.099999
v -0.100000 2.100000 -0.100001
v 0.100000 0.100000 0.100000
v 0.100000 0.100000 -0.100000
v 0.100000 2.100000 -0.100001
v 0.100000 2.100000 0.099999
v 0.100000 0.100000 -0.100000
v -0.100000 0.100000 -0.100000
v -0.100000 2.100000 -0.100001
v 0.100000 2.100000 -0.100001
v -0.200000 2.100000 0.199999
v 0.200000 2.100000 0.199999
v 0.000000 2.500001 -0.000001
v -0.100000 2.100000 -0.100001
v -0.100000 2.100000 0.099999
v -0.200000 2.100000 0.199999
v -0.200000 2.100000 -0.200001
v 0.100000 2.100000 -0.100001
v 0.200000 2.100000 -0.200001
v -0.100000 2.100000 -0.100001
v -0.200000 2.100000 -0.200001
v -0.200000 2.100000 -0.200001
v -0.200000 2.100000 0.199999
v 0.000000 2.500001 -0.000001
v 0.200000 2.100000 0.199999
v 0.200000 2.100000 -0.200001
v 0.000000 2.500001 -0.000001
v 0.200000 2.100000 -0.200001
v -0.200000 2.100000 -0.200001
v 0.000000 2.500001 -0.000001
vn -0.0000 -0.0000 1.0000
vn -0.0000 -1.0000 -0.0000
vn -1.0000 -0.0000 -0.0000
vn 1.0000 -0.0000 -0.0000
vn -0.0000 -0.0000 -1.0000
vn -0.0000 0.4472 0.8944
vn -0.8944 0.4472 -0.0000
vn 0.8944 0.4472 -0.0000
vn -0.0000 0.4472 -0.8944
vt 0.875000 0.500000
vt 0.625000 0.500000
vt 0.375000 0.750000
vt 0.625000 0.750000
vt 0.375000 0.500000
vt 0.125000 0.500000
s 0
usemtl Material.014
f 41/7/10 42/8/10 43/8/10
f 41/7/10 43/8/10 44/7/10
f 45/7/11 46/8/11 47/8/11
f 45/7/11 47/8/11 48/7/11
f 49/9/12 50/10/12 51/10/12
f 49/9/12 51/10/12 52/9/12
f 53/8/13 54/11/13 55/11/13
f 53/8/13 55/11/13 56/8/13
f 57/11/14 58/12/14 59/12/14
f 57/11/14 59/12/14 60/11/14
f 61/7/15 62/8/15 63/8/15
f 64/9/11 65/10/11 66/10/11
f 64/9/11 66/10/11 67/9/11
f 46/8/11 68/11/11 69/11/11
f 46/8/11 69/11/11 47/8/11
f 68/11/11 70/12/11 71/12/11
f 68/11/11 71/12/11 69/11/11
f 72/9/16 73/10/16 74/10/16
f 75/8/17 76/11/17 77/11/17
f 78/11/18 79/12/18 80/12/18
o Cube_Material.004_0
v 0.100000 -0.100000 0.100000
v 0.100000 -0.100000 -0.100000
v 2.100000 -0.100000 -0.100000
v 2.100000 -0.100000 0.100000
v 2.100000 -0.100000 -0.100000
v 2.100000 0.100000 -0.100000
v 2.100000 0.200000 -0.200000
v 2.100000 -0.200000 -0.200000
v 0.100000 -0.100000 -0.100000
v 0.100000 0.100000 -0.100000
v 2.100000 0.100000 -0.100000
v 2.100000 -0.100000 -0.100000
v 0.100000 0.100000 0.100000
v 0.100000 -0.100000 0.100000
v 2.100000 -0.100000 0.100000
v 2.100000 0.100000 0.100000
v 0.100000 0.100000 -0.100000
v 0.100000 0.100000 0.100000
v 2.100000 0.100000 0.100000
v 2.100000 0.100000 -0.100000
v 2.100000 -0.200000 0.200000
v 2.100000 -0.200000 -0.200000
v 2.500000 0.000000 0.000000
v 2.100000 0.100000 0.100000
v 2.100000 -0.100000 0.100000
v 2.100000 -0.200000 0.200000
v 2.100000 0.200000 0.200000
v 2.100000 -0.200000 -0.200000
v 2.100000 0.200000 -0.200000
v 2.500000 0.000000 0.000000
v 2.100000 0.200000 0.200000
v 2.100000 -0.200000 0.200000
v 2.500000 0.000000 0.000000
v 2.100000 0.200000 -0.200000
v 2.100000 0.200000 0.200000
v 2.500000 0.000000 0.000000
vn -0.0000 -1.0000 -0.0000
vn -1.0000 -0.0000 -0.0000
vn -0.0000 -0.0000 -1.0000
vn -0.0000 -0.0000 1.0000
vn -0.0000 1.0000 -0.0000
vn 0.4472 -0.8944 -0.0000
vn 0.4472 -0.0000 -0.8944
vn 0.4472 -0.0000 0.8944
vn 0.4472 0.8944 -0.0000
vt 0.625000 0.250000
vt 0.375000 0.250000
vt 0.375000 0.500000
vt 0.625000 0.500000
s 0
usemtl Material.015
f 81/13/19 82/14/19 83/14/19
f 81/13/19 83/14/19 84/13/19
f 85/14/20 86/15/20 87/15/20
f 85/14/20 87/15/20 88/14/20
f 89/14/21 90/15/21 91/15/21
f 89/14/21 91/15/21 92/14/21
f 93/16/22 94/13/22 95/13/22
f 93/16/22 95/13/22 96/16/22
f 97/15/23 98/16/23 99/16/23
f 97/15/23 99/16/23 100/15/23
f 101/13/24 102/14/24 103/14/24
f 104/16/20 105/13/20 106/13/20
f 104/16/20 106/13/20 107/16/20
f 86/15/20 104/16/20 107/16/20
f 86/15/20 107/16/20 87/15/20
f 105/13/20 85/14/20 88/14/20
f 105/13/20 88/14/20 106/13/20
f 108/14/25 109/15/25 110/15/25
f 111/16/26 112/13/26 113/13/26
f 114/15/27 115/16/27 116/16/27
o Cube_Material.005_0
v -0.100000 -0.100000 -0.100000
v -0.100000 -0.100000 0.100000
v -0.100000 0.100000 0.100000
v -0.100000 0.100000 -0.100000
v 0.100000 -0.100000 -0.100000
v 0.100000 -0.100000 0.100000
v -0.100000 -0.100000 0.100000
v -0.100000 -0.100000 -0.100000
v -0.100000 0.100000 -0.100000
v 0.100000 0.100000 -0.100000
v 0.100000 -0.100000 -0.100000
v -0.100000 -0.100000 -0.100000
vn -1.0000 -0.0000 -0.0000
vn -0.0000 -1.0000 -0.0000
vn -0.0000 -0.0000 -1.0000
vt 0.375000 1.000000
vt 0.625000 1.000000
vt 0.625000 0.750000
vt 0.375000 0.750000
vt 0.375000 0.250000
vt 0.625000 0.250000
vt 0.625000 0.000000
vt 0.375000 0.000000
vt 0.125000 0.500000
vt 0.375000 0.500000
vt 0.125000 0.250000
s 0
usemtl Material.016
f 117/17/28 118/18/28 119/19/28
f 117/17/28 119/19/28 120/20/28
f 121/21/29 122/22/29 123/23/29
f 121/21/29 123/23/29 124/24/29
f 125/25/30 126/26/30 127/21/30
f 125/25/30 127/21/30 128/27/30
